<svg width="26" height="26" viewBox="0 0 26 26" fill="none" xmlns="http://www.w3.org/2000/svg">
<rect x="0.5" y="0.5" width="25" height="25" rx="12.5" fill="url(#paint0_linear_45_26491)"/>
<rect x="0.5" y="0.5" width="25" height="25" rx="12.5" stroke="#3AD963"/>
<path d="M11.5004 16.1248C11.4501 16.1231 11.4006 16.1111 11.355 16.0897C11.3095 16.0682 11.2688 16.0376 11.2354 15.9998L8.73545 13.4998C8.68778 13.4689 8.64776 13.4276 8.6184 13.3789C8.58905 13.3303 8.57112 13.2756 8.56599 13.2191C8.56085 13.1625 8.56864 13.1055 8.58876 13.0523C8.60887 12.9992 8.6408 12.9514 8.68212 12.9124C8.72344 12.8734 8.77308 12.8443 8.82729 12.8273C8.8815 12.8103 8.93885 12.8059 8.99503 12.8143C9.05122 12.8227 9.10475 12.8438 9.15159 12.8759C9.19844 12.9081 9.23737 12.9504 9.26545 12.9998L11.5004 15.2198L16.7354 9.9998C16.8059 9.95411 16.8897 9.9334 16.9734 9.94099C17.057 9.94858 17.1357 9.98404 17.1968 10.0417C17.2579 10.0993 17.2979 10.1758 17.3103 10.2589C17.3228 10.3419 17.307 10.4268 17.2654 10.4998L11.7654 15.9998C11.7321 16.0376 11.6914 16.0682 11.6458 16.0897C11.6003 16.1111 11.5508 16.1231 11.5004 16.1248Z" fill="white"/>
<defs>
<linearGradient id="paint0_linear_45_26491" x1="13" y1="1" x2="13" y2="25" gradientUnits="userSpaceOnUse">
<stop stop-color="#3AD963"/>
<stop offset="1" stop-color="#1F7334"/>
</linearGradient>
</defs>
</svg>
