<svg width="16" height="15" viewBox="0 0 16 15" fill="none" xmlns="http://www.w3.org/2000/svg">
<path d="M8.26953 0C6.78617 0 5.33613 0.439867 4.10276 1.26398C2.86939 2.08809 1.9081 3.25943 1.34044 4.62987C0.772781 6.00032 0.624256 7.50832 0.913645 8.96318C1.20303 10.418 1.91734 11.7544 2.96623 12.8033C4.01513 13.8522 5.3515 14.5665 6.80636 14.8559C8.26121 15.1453 9.76921 14.9968 11.1397 14.4291C12.5101 13.8614 13.6814 12.9001 14.5056 11.6668C15.3297 10.4334 15.7695 8.98336 15.7695 7.5C15.7674 5.51152 14.9766 3.60509 13.5705 2.19902C12.1644 0.79295 10.258 0.00209987 8.26953 0ZM7.98107 3.46154C8.15223 3.46154 8.31954 3.51229 8.46185 3.60738C8.60416 3.70247 8.71508 3.83763 8.78058 3.99575C8.84608 4.15388 8.86322 4.32788 8.82983 4.49575C8.79644 4.66362 8.71402 4.81782 8.59299 4.93884C8.47196 5.05987 8.31777 5.14229 8.1499 5.17568C7.98203 5.20907 7.80803 5.19193 7.6499 5.12643C7.49177 5.06093 7.35662 4.95002 7.26153 4.8077C7.16644 4.66539 7.11569 4.49808 7.11569 4.32692C7.11569 4.09741 7.20686 3.87729 7.36915 3.715C7.53144 3.55271 7.75156 3.46154 7.98107 3.46154ZM8.84646 11.5385C8.54044 11.5385 8.24695 11.4169 8.03056 11.2005C7.81418 10.9841 7.69261 10.6906 7.69261 10.3846V7.5C7.5396 7.5 7.39286 7.43922 7.28466 7.33102C7.17647 7.22283 7.11569 7.07608 7.11569 6.92308C7.11569 6.77007 7.17647 6.62332 7.28466 6.51513C7.39286 6.40694 7.5396 6.34615 7.69261 6.34615C7.99863 6.34615 8.29211 6.46772 8.5085 6.68411C8.72489 6.90049 8.84646 7.19398 8.84646 7.5V10.3846C8.99947 10.3846 9.14621 10.4454 9.2544 10.5536C9.3626 10.6618 9.42338 10.8085 9.42338 10.9615C9.42338 11.1145 9.3626 11.2613 9.2544 11.3695C9.14621 11.4777 8.99947 11.5385 8.84646 11.5385Z" fill="white"/>
</svg>
