<svg width="48" height="48" viewBox="0 0 48 48" fill="none" xmlns="http://www.w3.org/2000/svg">
<path d="M24.0078 0C13.9881 0 11.0576 0.0103406 10.488 0.0575999C8.43181 0.228568 7.15231 0.552416 5.75834 1.24661C4.68409 1.78021 3.83685 2.39872 3.0007 3.26575C1.47792 4.84693 0.555015 6.79219 0.220916 9.10452C0.0584934 10.2271 0.0112338 10.456 0.00163679 16.1899C-0.00204598 18.1012 0.00163679 20.6166 0.00163679 23.9906C0.00163679 34.005 0.0127032 36.9332 0.0607062 37.5019C0.22683 39.5033 0.540609 40.7625 1.2051 42.1398C2.47503 44.7763 4.9004 46.7556 7.75772 47.4941C8.74708 47.7489 9.83979 47.8892 11.2426 47.9557C11.837 47.9815 17.8949 48 23.9565 48C30.0182 48 36.0798 47.9926 36.6594 47.9631C38.2837 47.8866 39.2269 47.76 40.2698 47.4904C43.1455 46.7482 45.5266 44.7985 46.8224 42.125C47.474 40.7809 47.8044 39.4737 47.9539 37.5768C47.9863 37.1633 48 30.5694 48 23.9843C48 17.3981 47.9852 10.8164 47.9528 10.4028C47.8014 8.47529 47.471 7.17919 46.7984 5.80922C46.2465 4.68777 45.6337 3.85027 44.744 2.99398C43.1563 1.47705 41.2145 0.553885 38.9006 0.220077C37.7794 0.0579629 37.5561 0.00995981 31.8193 0H24.0078Z" fill="url(#paint0_radial_45_26495)"/>
<path d="M24.0078 0C13.9881 0 11.0576 0.0103406 10.488 0.0575999C8.43181 0.228568 7.15231 0.552416 5.75834 1.24661C4.68409 1.78021 3.83685 2.39872 3.0007 3.26575C1.47792 4.84693 0.555015 6.79219 0.220916 9.10452C0.0584934 10.2271 0.0112338 10.456 0.00163679 16.1899C-0.00204598 18.1012 0.00163679 20.6166 0.00163679 23.9906C0.00163679 34.005 0.0127032 36.9332 0.0607062 37.5019C0.22683 39.5033 0.540609 40.7625 1.2051 42.1398C2.47503 44.7763 4.9004 46.7556 7.75772 47.4941C8.74708 47.7489 9.83979 47.8892 11.2426 47.9557C11.837 47.9815 17.8949 48 23.9565 48C30.0182 48 36.0798 47.9926 36.6594 47.9631C38.2837 47.8866 39.2269 47.76 40.2698 47.4904C43.1455 46.7482 45.5266 44.7985 46.8224 42.125C47.474 40.7809 47.8044 39.4737 47.9539 37.5768C47.9863 37.1633 48 30.5694 48 23.9843C48 17.3981 47.9852 10.8164 47.9528 10.4028C47.8014 8.47529 47.471 7.17919 46.7984 5.80922C46.2465 4.68777 45.6337 3.85027 44.744 2.99398C43.1563 1.47705 41.2145 0.553885 38.9006 0.220077C37.7794 0.0579629 37.5561 0.00995981 31.8193 0H24.0078Z" fill="url(#paint1_radial_45_26495)"/>
<path d="M24.0078 0C13.9881 0 11.0576 0.0103406 10.488 0.0575999C8.43181 0.228568 7.15231 0.552416 5.75834 1.24661C4.68409 1.78021 3.83685 2.39872 3.0007 3.26575C1.47792 4.84693 0.555015 6.79219 0.220916 9.10452C0.0584934 10.2271 0.0112338 10.456 0.00163679 16.1899C-0.00204598 18.1012 0.00163679 20.6166 0.00163679 23.9906C0.00163679 34.005 0.0127032 36.9332 0.0607062 37.5019C0.22683 39.5033 0.540609 40.7625 1.2051 42.1398C2.47503 44.7763 4.9004 46.7556 7.75772 47.4941C8.74708 47.7489 9.83979 47.8892 11.2426 47.9557C11.837 47.9815 17.8949 48 23.9565 48C30.0182 48 36.0798 47.9926 36.6594 47.9631C38.2837 47.8866 39.2269 47.76 40.2698 47.4904C43.1455 46.7482 45.5266 44.7985 46.8224 42.125C47.474 40.7809 47.8044 39.4737 47.9539 37.5768C47.9863 37.1633 48 30.5694 48 23.9843C48 17.3981 47.9852 10.8164 47.9528 10.4028C47.8014 8.47529 47.471 7.17919 46.7984 5.80922C46.2465 4.68777 45.6337 3.85027 44.744 2.99398C43.1563 1.47705 41.2145 0.553885 38.9006 0.220077C37.7794 0.0579629 37.5561 0.00995981 31.8193 0H24.0078Z" fill="url(#paint2_radial_45_26495)"/>
<path d="M24.0078 0C13.9881 0 11.0576 0.0103406 10.488 0.0575999C8.43181 0.228568 7.15231 0.552416 5.75834 1.24661C4.68409 1.78021 3.83685 2.39872 3.0007 3.26575C1.47792 4.84693 0.555015 6.79219 0.220916 9.10452C0.0584934 10.2271 0.0112338 10.456 0.00163679 16.1899C-0.00204598 18.1012 0.00163679 20.6166 0.00163679 23.9906C0.00163679 34.005 0.0127032 36.9332 0.0607062 37.5019C0.22683 39.5033 0.540609 40.7625 1.2051 42.1398C2.47503 44.7763 4.9004 46.7556 7.75772 47.4941C8.74708 47.7489 9.83979 47.8892 11.2426 47.9557C11.837 47.9815 17.8949 48 23.9565 48C30.0182 48 36.0798 47.9926 36.6594 47.9631C38.2837 47.8866 39.2269 47.76 40.2698 47.4904C43.1455 46.7482 45.5266 44.7985 46.8224 42.125C47.474 40.7809 47.8044 39.4737 47.9539 37.5768C47.9863 37.1633 48 30.5694 48 23.9843C48 17.3981 47.9852 10.8164 47.9528 10.4028C47.8014 8.47529 47.471 7.17919 46.7984 5.80922C46.2465 4.68777 45.6337 3.85027 44.744 2.99398C43.1563 1.47705 41.2145 0.553885 38.9006 0.220077C37.7794 0.0579629 37.5561 0.00995981 31.8193 0H24.0078Z" fill="url(#paint3_radial_45_26495)"/>
<path d="M24.0104 6.16309C19.1635 6.16309 18.5552 6.18426 16.6515 6.27083C14.7516 6.35776 13.4547 6.65834 12.32 7.09936C11.1462 7.55485 10.1505 8.16416 9.15851 9.15577C8.16579 10.147 7.55601 11.142 7.09869 12.3145C6.65624 13.4488 6.35506 14.7451 6.26956 16.6429C6.18442 18.5451 6.16211 19.1533 6.16211 23.9966C6.16211 28.8399 6.18368 29.4458 6.26993 31.3481C6.35731 33.2466 6.6581 34.5425 7.09906 35.6764C7.55527 36.8494 8.16503 37.8443 9.15738 38.8356C10.149 39.8275 11.1447 40.4384 12.3177 40.8938C13.4532 41.3349 14.7505 41.6354 16.65 41.7224C18.5537 41.8089 19.1616 41.8301 24.0081 41.8301C28.8554 41.8301 29.4618 41.8089 31.3654 41.7224C33.2654 41.6354 34.5637 41.3349 35.6992 40.8938C36.8727 40.4384 37.8669 39.8275 38.8585 38.8356C39.8512 37.8443 40.461 36.8494 40.9183 35.6768C41.357 34.5425 41.6582 33.2462 41.7474 31.3485C41.8329 29.4462 41.8553 28.8399 41.8553 23.9966C41.8553 19.1533 41.8329 18.5455 41.7474 16.6432C41.6582 14.7447 41.357 13.4488 40.9183 12.3149C40.461 11.142 39.8512 10.147 38.8585 9.15577C37.8658 8.16377 36.873 7.55447 35.6981 7.09934C34.5604 6.65834 33.2628 6.35776 31.3629 6.27083C29.4592 6.18426 28.8531 6.16309 24.0048 6.16309H24.0104ZM22.4094 9.3746C22.4093 9.37583 22.4103 9.37684 22.4116 9.37684C22.8862 9.3761 23.4157 9.37684 24.0104 9.37684C28.7754 9.37684 29.3402 9.39393 31.2219 9.47938C32.962 9.55889 33.9064 9.84941 34.5355 10.0935C35.3683 10.4167 35.9621 10.8031 36.5864 11.4273C37.211 12.0515 37.5977 12.6459 37.9219 13.4782C38.1662 14.106 38.4573 15.0497 38.5365 16.7885C38.622 18.6685 38.6406 19.2332 38.6406 23.9925C38.6406 28.7518 38.622 29.3166 38.5365 31.1965C38.4569 32.9353 38.1662 33.879 37.9219 34.5068C37.5984 35.3391 37.211 35.9317 36.5864 36.5555C35.9618 37.1796 35.3687 37.566 34.5355 37.8893C33.9071 38.1345 32.962 38.4243 31.2219 38.5038C29.3406 38.5892 28.7754 38.6078 24.0104 38.6078C19.2449 38.6078 18.6801 38.5892 16.7988 38.5038C15.0587 38.4235 14.1143 38.133 13.4849 37.8889C12.652 37.5657 12.0571 37.1793 11.4325 36.5551C10.8078 35.9309 10.4212 35.338 10.0969 34.5054C9.85267 33.8775 9.56154 32.9338 9.48236 31.195C9.39684 29.3151 9.37973 28.7503 9.37973 23.988C9.37973 19.2258 9.39684 18.664 9.48236 16.7841C9.56193 15.0453 9.85267 14.1016 10.0969 13.473C10.4204 12.6407 10.8078 12.0463 11.4325 11.4221C12.0571 10.7979 12.652 10.4116 13.4849 10.0876C14.114 9.84236 15.0587 9.55258 16.7988 9.47268C18.4448 9.39839 19.0829 9.37611 22.4071 9.37236C22.4083 9.37236 22.4094 9.37336 22.4094 9.3746ZM33.5368 12.3376C33.5368 12.3378 33.5366 12.3379 33.5365 12.3379C32.3543 12.3381 31.3952 13.2955 31.3952 14.4772C31.3952 15.6587 32.3545 16.6172 33.5368 16.6172C34.7191 16.6172 35.6784 15.6587 35.6784 14.4772C35.6784 13.2959 34.7193 12.3374 33.5372 12.3372C33.537 12.3372 33.5368 12.3374 33.5368 12.3376ZM24.0104 14.8383C18.9489 14.8383 14.8453 18.9389 14.8453 23.9966C14.8453 29.0543 18.9489 33.153 24.0104 33.153C29.0718 33.153 33.1739 29.0543 33.1739 23.9966C33.1739 18.9389 29.0714 14.8383 24.01 14.8383H24.0104ZM24.0104 18.0521C27.2956 18.0521 29.9593 20.7134 29.9593 23.9966C29.9593 27.2794 27.2956 29.9411 24.0104 29.9411C20.7247 29.9411 18.0614 27.2794 18.0614 23.9966C18.0614 20.7134 20.7247 18.0521 24.0104 18.0521Z" fill="white"/>
<defs>
<radialGradient id="paint0_radial_45_26495" cx="0" cy="0" r="1" gradientUnits="userSpaceOnUse" gradientTransform="translate(46.4501 22.4982) rotate(164.25) scale(30.6693 22.0957)">
<stop stop-color="#FF005F"/>
<stop offset="1" stop-color="#FC01D8"/>
</radialGradient>
<radialGradient id="paint1_radial_45_26495" cx="0" cy="0" r="1" gradientUnits="userSpaceOnUse" gradientTransform="translate(12.7496 51.697) rotate(-90) scale(38.3145 40.6509)">
<stop stop-color="#FFCC00"/>
<stop offset="0.1242" stop-color="#FFCC00"/>
<stop offset="0.5672" stop-color="#FE4A05"/>
<stop offset="0.6942" stop-color="#FF0F3F"/>
<stop offset="1" stop-color="#FE0657" stop-opacity="0"/>
</radialGradient>
<radialGradient id="paint2_radial_45_26495" cx="0" cy="0" r="1" gradientUnits="userSpaceOnUse" gradientTransform="translate(25.2129 47.3231) rotate(-59.8703) scale(15.8434 20.6263)">
<stop stop-color="#FFCC00"/>
<stop offset="1" stop-color="#FFCC00" stop-opacity="0"/>
</radialGradient>
<radialGradient id="paint3_radial_45_26495" cx="0" cy="0" r="1" gradientUnits="userSpaceOnUse" gradientTransform="translate(6.51257 1.95455) rotate(164.274) scale(30.3291 10.3331)">
<stop stop-color="#780CFF"/>
<stop offset="1" stop-color="#820BFF" stop-opacity="0"/>
</radialGradient>
</defs>
</svg>
