<svg width="48" height="48" viewBox="0 0 48 48" fill="none" xmlns="http://www.w3.org/2000/svg">
<path d="M24.0078 0C13.9881 0 11.0576 0.0103406 10.488 0.0575999C8.43181 0.228568 7.15231 0.552416 5.75834 1.24661C4.68409 1.78021 3.83685 2.39872 3.0007 3.26575C1.47792 4.84693 0.555015 6.79219 0.220916 9.10452C0.0584934 10.2271 0.0112338 10.456 0.00163679 16.1899C-0.00204598 18.1012 0.00163679 20.6166 0.00163679 23.9906C0.00163679 34.005 0.0127032 36.9332 0.0607062 37.5019C0.22683 39.5033 0.540609 40.7625 1.2051 42.1398C2.47503 44.7763 4.9004 46.7556 7.75772 47.4941C8.74708 47.7489 9.83979 47.8892 11.2426 47.9557C11.837 47.9815 17.8949 48 23.9565 48C30.0182 48 36.0798 47.9926 36.6594 47.9631C38.2837 47.8866 39.2269 47.76 40.2698 47.4904C43.1455 46.7482 45.5266 44.7985 46.8224 42.125C47.474 40.7809 47.8044 39.4737 47.9539 37.5768C47.9863 37.1633 48 30.5694 48 23.9843C48 17.3981 47.9852 10.8164 47.9528 10.4028C47.8014 8.47529 47.471 7.17919 46.7984 5.80922C46.2465 4.68777 45.6337 3.85027 44.744 2.99398C43.1563 1.47705 41.2145 0.553885 38.9006 0.220077C37.7794 0.0579629 37.5561 0.00995981 31.8193 0H24.0078Z" fill="url(#paint0_radial_45_26499)"/>
<defs>
<radialGradient id="paint0_radial_45_26499" cx="0" cy="0" r="1" gradientUnits="userSpaceOnUse" gradientTransform="translate(6.51257 1.95455) rotate(164.274) scale(30.3291 10.3331)">
<stop stop-color="#780CFF"/>
<stop offset="1" stop-color="#820BFF" stop-opacity="0"/>
</radialGradient>
</defs>
</svg>
