<svg width="48" height="48" viewBox="0 0 48 48" fill="none" xmlns="http://www.w3.org/2000/svg">
<g clip-path="url(#clip0_45_26516)">
<path d="M24.0187 48.0374C37.2839 48.0374 48.0374 37.2839 48.0374 24.0187C48.0374 10.7535 37.2839 0 24.0187 0C10.7535 0 0 10.7535 0 24.0187C0 37.2839 10.7535 48.0374 24.0187 48.0374Z" fill="url(#paint0_linear_45_26516)"/>
<path fill-rule="evenodd" clip-rule="evenodd" d="M10.85 23.7566C17.8461 20.6888 22.5226 18.7059 24.8796 17.7332C31.539 14.9647 32.9232 14.4783 33.8211 14.4409C34.0082 14.4409 34.4571 14.4783 34.7564 14.7028C34.9809 14.8899 35.0557 15.1518 35.0931 15.3388C35.1306 15.5259 35.168 15.9374 35.1306 16.2741C34.7564 20.0528 33.2225 29.2936 32.3995 33.5212C32.0627 35.317 31.3893 35.9156 30.7533 35.9904C29.3691 36.1026 28.2841 35.0551 26.9373 34.1946C24.8422 32.8104 23.645 31.9499 21.5873 30.603C19.2303 29.0317 20.7642 28.1712 22.1111 26.787C22.4478 26.4129 28.6208 20.8384 28.733 20.3147C28.733 20.2398 28.7705 20.0154 28.6208 19.9031C28.4712 19.7909 28.2841 19.8283 28.1345 19.8657C27.91 19.9031 24.5429 22.1479 17.9957 26.5625C17.023 27.2359 16.1625 27.5352 15.3769 27.5352C14.5164 27.5352 12.8702 27.0489 11.6356 26.6373C10.1391 26.151 8.94193 25.8891 9.05417 25.066C9.129 24.6545 9.72759 24.2055 10.85 23.7566Z" fill="white"/>
</g>
<defs>
<linearGradient id="paint0_linear_45_26516" x1="0" y1="24.0013" x2="48.0026" y2="24.0013" gradientUnits="userSpaceOnUse">
<stop stop-color="#2AABEE"/>
<stop offset="1" stop-color="#229ED9"/>
</linearGradient>
<clipPath id="clip0_45_26516">
<rect width="48" height="48" fill="white"/>
</clipPath>
</defs>
</svg>
